<?xml version="1.0" encoding="utf-8"?>
<!-- Generator: Adobe Illustrator 27.0.0, SVG Export Plug-In . SVG Version: 6.00 Build 0)  -->
<svg version="1.1" id="Layer_1" xmlns="http://www.w3.org/2000/svg" xmlns:xlink="http://www.w3.org/1999/xlink" x="0px" y="0px"
	 viewBox="0 0 1228 849" style="enable-background:new 0 0 1228 849;" xml:space="preserve">
<style type="text/css">
	.st0{fill:#7286A0;}
</style>
<path class="st0" d="M256,849C80,849,0,750,0,605V323c0-74,21-126,63-162L192,52C234,17,298,0,385,0h250c32,0,46,14,46,46v121
	c0,18-5,29-14,37L537,312c-6,6-17,10-31,10H376v144c2-3,5-6,8-9l129-109c7-6,18-9,32-9h155c32,0,46,14,46,46v309c0,18-5,29-14,37
	L602,839c-6,6-17,10-31,10H256z M736,694V385c0-25-11-36-36-36H545c-25,0-36,11-36,36v156h-97c-31,0-46-15-46-49V253
	c0-34,19-50,61-50h208c25,0,36-11,36-36V46c0-25-11-36-36-36H385c-168,0-246,65-246,204v312c0,139,78,204,246,204h315
	C725,730,736,719,736,694z M248,511V231c0-95,32-131,160-131h173v10H408c-118,0-150,32-150,121v280c0,87,35,119,170,119h189V439h10
	v201H428C281,640,248,604,248,511z"/>
<path class="st0" d="M851,849c-32,0-46-14-46-46V600c0-18,5-30,13-37l130-109c7-6,17-9,32-9h202c32,0,46,13,46,46v203
	c0,18-5,29-14,37l-130,108c-6,6-17,10-31,10H851z M1218,694V491c0-26-11-36-36-36H980c-25,0-36,10-36,36v203c0,25,11,36,36,36h202
	C1207,730,1218,719,1218,694z M1076,545h10v95h-10V545z"/>
</svg>
