<?xml version="1.0" encoding="UTF-8"?>
<svg id="Layer_1" data-name="Layer 1" xmlns="http://www.w3.org/2000/svg" viewBox="0 0 883 962">
  <defs>
    <style>
      .cls-1 {
        fill: #e8e9eb;
      }

      .cls-2 {
        fill: #f09d51;
        stroke: #313638;
        stroke-miterlimit: 10;
        stroke-width: 113px;
      }
    </style>
  </defs>
  <path class="cls-2" d="M288.5,895.5c-6,6-17,10-31,10H102.5c-32,0-46-14-46-46V211.5c0-18,5-29,14-37L199.5,65.5c7-6,18-9,32-9h155c32,0,46,14,46,46v207h18v-98c0-18,5-29,14-37l129-109c7-6,18-9,32-9h155c32,0,46,14,46,46V750.5c0,18-5,29-14,37l-130,108c-6,6-17,10-31,10h-155c-32,0-46-14-46-46v-212h-18v103c0,18-5,29-14,37l-130,108Zm134-145v-222h167v222c0,25,11,36,36,36h155c25,0,36-11,36-36V102.5c0-25-11-36-36-36h-155c-25,0-36,11-36,36v217h-167V102.5c0-25-11-36-36-36H231.5c-25,0-36,11-36,36V750.5c0,25,11,36,36,36h155c25,0,36-11,36-36ZM303.5,156.5h10V421.5h384V156.5h10V696.5h-10V431.5H313.5v265h-10V156.5Z"/>
  <path class="cls-1" d="M289,895.5c-6,6-17,10-31,10H103c-32,0-46-14-46-46V211.5c0-18,5-29,14-37L200,65.5c7-6,18-9,32-9h155c32,0,46,14,46,46v207h18v-98c0-18,5-29,14-37l129-109c7-6,18-9,32-9h155c32,0,46,14,46,46V750.5c0,18-5,29-14,37l-130,108c-6,6-17,10-31,10h-155c-32,0-46-14-46-46v-212h-18v103c0,18-5,29-14,37l-130,108Zm134-145v-222h167v222c0,25,11,36,36,36h155c25,0,36-11,36-36V102.5c0-25-11-36-36-36h-155c-25,0-36,11-36,36v217h-167V102.5c0-25-11-36-36-36H232c-25,0-36,11-36,36V750.5c0,25,11,36,36,36h155c25,0,36-11,36-36ZM304,156.5h10V421.5h384V156.5h10V696.5h-10V431.5H314v265h-10V156.5Z"/>
</svg>